<svg width="312" height="295" viewBox="0 0 312 295" fill="none" xmlns="http://www.w3.org/2000/svg">
<path fill-rule="evenodd" clip-rule="evenodd" d="M155.232 158.595C158.998 169.774 152.246 175.293 141.183 174.931C129.256 174.541 117.427 161.809 119.292 144.981C120.926 130.244 134.988 113.82 158.106 112.199C188.405 110.076 211.971 137.651 212.083 161.753C212.233 194.117 190.449 235.02 137.153 234.504C100.727 234.152 59.5038 205.959 57.8673 153.441C56.3098 103.458 102.394 51.2438 158.106 49.4676C211.633 47.7611 269.098 93.4225 273.399 153.224C277.62 211.921 243.598 283.561 158.106 293.969C86.0469 302.742 0.108359 253.182 0.000105571 153.224C-0.10946 52.0529 85.086 0 158.106 0C265.475 1.85615 314.379 95.8895 311.276 153.224C310.498 167.618 308.288 184.672 302.412 196.903C303.606 185.594 303.712 177.769 303.712 166.908C303.714 94.0441 249.131 22.2389 160.496 21.5142C77.7238 20.8375 21.1177 87.4272 25.013 156.308C29.3863 233.64 94.7349 266.58 140.203 265.072C220.604 262.405 245.046 203.357 245.046 166.037C245.046 115.125 205.422 80.2163 161.985 80.2163C120.421 80.2163 89.3784 111.542 89.3784 149.918C89.3784 182.94 115.872 203.961 142.09 204.228C166.936 204.48 183.621 183.938 183.621 167.925C183.621 147.636 170.426 139.173 160.387 139.173C147.979 139.173 140.34 146.251 140.057 153.839C139.912 157.745 142.645 162.406 148.189 162.406C151.06 162.406 153.719 161.097 155.232 158.595Z" fill="black"/>
</svg>
